<svg xmlns="http://www.w3.org/2000/svg" width="60" height="60"><g fill="none" fill-rule="evenodd"><rect width="59.5" height="59.5" x=".25" y=".25" fill="#F6F7FF" stroke="#97A0BE" stroke-width=".5" rx="2"/><g fill="#5E6B92" fill-rule="nonzero"><path d="M48.136 17.078l-8.765.001v-1.587c0-.576-.467-1.043-1.044-1.043H21.653c-.577 0-1.044.467-1.044 1.043v1.587h-8.766c-.576 0-1.043.466-1.043 1.043v26.72c0 .576.467 1.044 1.043 1.044h5.837c.576 0 1.044-.468 1.044-1.044v-4.924l1.885-.004v4.928c0 .576.467 1.044 1.044 1.044h6.41c.576 0 1.044-.468 1.044-1.044V39.33h1.766v5.512c0 .576.467 1.044 1.044 1.044h6.41c.577 0 1.044-.468 1.044-1.044v-4.928l1.885.004v4.924c0 .576.468 1.044 1.044 1.044h5.836c.577 0 1.044-.468 1.044-1.044v-26.72c0-.577-.467-1.044-1.044-1.044zM20.61 37.831h-2.93c-.576 0-1.043.467-1.043 1.043V43.8h-3.75V19.165l7.722-.003v18.669zm16.675 5.968H32.96v-5.512c0-.576-.467-1.044-1.043-1.044h-3.854c-.576 0-1.043.468-1.043 1.044v5.512h-4.324V16.536h14.588v27.263zm9.809 0h-3.75v-4.925c0-.576-.467-1.043-1.043-1.043h-2.93V19.162h.405c.017.001.033.003.05.003h7.268v24.634z"/><path d="M17.874 21.72h-2.01a.374.374 0 0 0-.375.374v2.01c0 .208.168.375.374.375h2.011a.374.374 0 0 0 .374-.374v-2.01a.374.374 0 0 0-.374-.375zm0 5.638h-2.01a.374.374 0 0 0-.375.374v2.011c0 .207.168.374.374.374h2.011a.374.374 0 0 0 .374-.374v-2.01a.374.374 0 0 0-.374-.375zm0 5.638h-2.01a.374.374 0 0 0-.375.374v2.011c0 .207.168.375.374.375h2.011a.374.374 0 0 0 .374-.375v-2.01a.374.374 0 0 0-.374-.375zm24.232-8.516h2.01a.374.374 0 0 0 .375-.375v-2.01a.374.374 0 0 0-.375-.375h-2.01a.374.374 0 0 0-.375.374v2.01c0 .208.168.375.375.375zm0 5.637h2.01a.374.374 0 0 0 .375-.374v-2.01a.374.374 0 0 0-.375-.375h-2.01a.374.374 0 0 0-.375.374v2.011c0 .207.168.374.375.374zm0 5.639h2.01a.374.374 0 0 0 .375-.375v-2.01a.374.374 0 0 0-.375-.375h-2.01a.374.374 0 0 0-.375.374v2.011c0 .207.168.375.375.375zM25.746 22.42h2.011a.374.374 0 0 0 .374-.374v-2.01a.374.374 0 0 0-.374-.375h-2.01a.374.374 0 0 0-.375.374v2.01c0 .208.168.375.374.375zm0 5.638h2.011a.374.374 0 0 0 .374-.374v-2.01a.374.374 0 0 0-.374-.375h-2.01a.374.374 0 0 0-.375.374v2.011c0 .207.168.374.374.374zm0 5.639h2.011a.374.374 0 0 0 .374-.375v-2.01a.374.374 0 0 0-.374-.375h-2.01a.374.374 0 0 0-.375.375v2.01c0 .207.168.375.374.375zm6.477-11.277h2.01a.374.374 0 0 0 .375-.374v-2.01a.374.374 0 0 0-.375-.375h-2.01a.374.374 0 0 0-.375.374v2.01c0 .208.168.375.375.375zm0 5.638h2.01a.374.374 0 0 0 .375-.374v-2.01a.374.374 0 0 0-.375-.375h-2.01a.374.374 0 0 0-.375.374v2.011c0 .207.168.374.375.374zm0 5.639h2.01a.374.374 0 0 0 .375-.375v-2.01a.374.374 0 0 0-.375-.375h-2.01a.374.374 0 0 0-.375.375v2.01c0 .207.168.375.375.375z"/></g></g></svg>